<svg fill="none" xmlns="http://www.w3.org/2000/svg" viewBox="0 0 512 512"><g clip-path="url(#prefix__clip0_9_19)"><mask id="prefix__a" style="mask-type:luminance" maskUnits="userSpaceOnUse" x="0" y="0" width="512" height="512"><path d="M512 0H0v512h512V0z" fill="#fff"/></mask><g mask="url(#prefix__a)"><path fill-rule="evenodd" clip-rule="evenodd" d="M327.68 45.225c12.517 0 23.609 9.387 27.591 23.04 3.983 13.653 27.306 98.134 27.306 98.134v167.822h-84.48l1.708-289.28h27.875v.284z" fill="url(#prefix__paint0_linear_9_19)"/><path d="M451.699 176.355c0-5.973-4.835-10.525-10.523-10.525h-49.778c-34.987 0-63.431 28.445-63.431 63.431v105.245h60.301c34.988 0 63.431-28.445 63.431-63.431v-94.72z" fill="url(#prefix__paint1_linear_9_19)"/><path fill-rule="evenodd" clip-rule="evenodd" d="M327.684 45.225c-9.672 0-17.352 7.68-17.352 17.352l-1.706 319.43c0 46.65-37.831 84.48-84.48 84.48H70.83c-7.396 0-12.231-7.11-9.956-13.938L183.755 101.83c11.946-33.849 43.803-56.605 79.643-56.605h64.569-.283z" fill="url(#prefix__paint2_linear_9_19)"/></g></g><defs><linearGradient id="prefix__paint0_linear_9_19" x1="362.951" y1="340.478" x2="291.84" y2="55.75" gradientUnits="userSpaceOnUse"><stop stop-color="#712575"/><stop offset=".09" stop-color="#9A2884"/><stop offset=".18" stop-color="#BF2C92"/><stop offset=".27" stop-color="#DA2E9C"/><stop offset=".34" stop-color="#EB30A2"/><stop offset=".4" stop-color="#F131A5"/><stop offset=".5" stop-color="#EC30A3"/><stop offset=".61" stop-color="#DF2F9E"/><stop offset=".72" stop-color="#C92D96"/><stop offset=".83" stop-color="#AA2A8A"/><stop offset=".95" stop-color="#83267C"/><stop offset="1" stop-color="#712575"/></linearGradient><linearGradient id="prefix__paint1_linear_9_19" x1="389.976" y1="51.199" x2="389.976" y2="452.835" gradientUnits="userSpaceOnUse"><stop stop-color="#DA7ED0"/><stop offset=".08" stop-color="#B17BD5"/><stop offset=".19" stop-color="#8778DB"/><stop offset=".3" stop-color="#6276E1"/><stop offset=".41" stop-color="#4574E5"/><stop offset=".54" stop-color="#2E72E8"/><stop offset=".67" stop-color="#1D71EB"/><stop offset=".81" stop-color="#1471EC"/><stop offset="1" stop-color="#1171ED"/></linearGradient><linearGradient id="prefix__paint2_linear_9_19" x1="365.798" y1="60.301" x2="99.559" y2="487.252" gradientUnits="userSpaceOnUse"><stop stop-color="#DA7ED0"/><stop offset=".05" stop-color="#B77BD4"/><stop offset=".11" stop-color="#9079DA"/><stop offset=".18" stop-color="#6E77DF"/><stop offset=".25" stop-color="#5175E3"/><stop offset=".33" stop-color="#3973E7"/><stop offset=".42" stop-color="#2772E9"/><stop offset=".54" stop-color="#1A71EB"/><stop offset=".68" stop-color="#1371EC"/><stop offset="1" stop-color="#1171ED"/></linearGradient><clipPath id="prefix__clip0_9_19"><path fill="#fff" d="M0 0h512v512H0z"/></clipPath></defs></svg>